<?xml version="1.0" standalone="no"?>
<!DOCTYPE svg PUBLIC "-//W3C//DTD SVG 20010904//EN"
 "http://www.w3.org/TR/2001/REC-SVG-20010904/DTD/svg10.dtd">
<svg version="1.0" xmlns="http://www.w3.org/2000/svg"
 width="300.000000pt" height="270.000000pt" viewBox="0 0 300.000000 270.000000"
 preserveAspectRatio="xMidYMid meet">
<metadata>
Created by potrace 1.10, written by Peter Selinger 2001-2011
</metadata>
<g transform="translate(0.000000,270.000000) scale(0.100000,-0.100000)"
fill="blue" stroke="none">
<path d="M1350 2550 c-157 -20 -321 -75 -447 -148 -387 -225 -612 -610 -613
-1050 0 -379 151 -695 455 -952 119 -100 313 -192 500 -236 112 -27 406 -27
515 -1 169 41 281 90 420 183 307 205 489 511 532 894 22 202 -25 458 -119
643 -83 166 -263 373 -403 466 -195 129 -413 199 -640 206 -74 2 -164 0 -200
-5z m330 -35 c164 -23 373 -109 510 -208 82 -60 239 -222 293 -303 125 -187
188 -384 201 -626 6 -112 -31 -346 -64 -409 -8 -13 -13 -26 -13 -29 1 -10 -10
-36 -43 -105 -165 -340 -478 -575 -865 -650 -57 -11 -300 -14 -364 -4 -256 39
-517 172 -681 349 -70 76 -88 98 -139 175 -68 104 -97 163 -134 271 -100 299
-73 640 74 919 72 136 197 284 321 381 73 57 236 151 289 167 11 3 53 17 94
32 122 44 365 63 521 40z"/>
<path d="M1370 2484 c-275 -41 -494 -148 -680 -334 -166 -167 -277 -381 -316
-610 -11 -61 -11 -312 -1 -380 15 -98 75 -271 125 -360 26 -46 108 -166 127
-186 5 -6 28 -31 50 -55 23 -24 61 -60 85 -79 25 -19 47 -37 50 -41 12 -15
151 -100 205 -124 97 -45 233 -84 345 -100 49 -7 233 -8 265 -1 11 2 40 7 65
11 285 44 544 200 723 435 155 203 231 431 229 690 -1 192 -30 324 -107 485
-65 138 -130 229 -243 339 -206 200 -509 319 -803 315 -52 -1 -105 -3 -119 -5z
m285 -39 c240 -35 462 -145 626 -307 74 -73 172 -204 204 -272 107 -229 120
-290 119 -541 -1 -154 -3 -179 -28 -265 -88 -308 -297 -560 -578 -702 -164
-82 -295 -113 -493 -113 -162 0 -243 13 -377 61 -200 72 -399 218 -520 384
-407 559 -217 1341 402 1651 91 46 166 71 275 93 152 29 230 32 370 11z"/>
<path d="M1300 2340 c-480 -102 -810 -508 -810 -995 0 -272 103 -519 296 -712
121 -121 267 -207 444 -260 123 -37 355 -44 485 -14 364 82 650 343 757 689
71 232 61 443 -34 692 -81 209 -272 410 -496 520 -193 94 -435 124 -642 80z
m415 -29 c292 -68 515 -242 666 -516 16 -30 27 -55 23 -55 -3 0 -2 -6 4 -12
15 -19 52 -135 63 -198 19 -109 21 -226 4 -327 -16 -96 -49 -209 -66 -228 -5
-5 -9 -16 -9 -24 0 -24 -78 -150 -139 -224 -125 -153 -362 -303 -526 -331 -16
-3 -54 -10 -84 -16 -112 -21 -351 -4 -446 32 -223 85 -348 175 -497 357 -64
80 -146 265 -174 396 -12 55 -14 278 -3 344 32 194 131 390 267 526 69 69 110
105 121 105 5 0 11 4 13 8 6 17 141 91 212 118 39 14 80 30 91 34 22 9 158 29
220 33 61 3 204 -9 260 -22z"/>
<path d="M1435 2234 c-46 -6 -139 -26 -150 -32 -5 -4 -15 -7 -21 -8 -38 -6
-137 -68 -190 -119 -110 -106 -165 -255 -165 -449 -1 -152 25 -223 149 -424
55 -90 92 -190 99 -272 6 -77 24 -110 58 -110 31 0 33 -16 3 -26 -63 -18 -80
-93 -33 -139 l24 -25 -24 -25 c-32 -31 -34 -91 -5 -123 24 -25 0 -23 359 -23
285 0 291 2 291 77 0 30 -7 54 -19 70 -10 13 -20 22 -22 21 -3 -1 6 8 18 21
34 34 32 103 -4 132 -24 18 -39 21 -123 20 -232 -3 -430 1 -430 8 0 4 121 7
270 7 320 0 307 -5 320 116 14 121 36 175 144 353 114 188 139 312 100 490
-16 73 -81 226 -96 226 -4 0 -8 4 -8 9 0 17 -105 112 -155 141 -103 58 -281
96 -390 84z m211 -44 c159 -39 288 -134 353 -259 69 -133 89 -331 47 -458 -10
-29 -56 -116 -102 -195 -94 -159 -131 -258 -136 -361 l-3 -67 -307 0 -308 0 0
53 c-1 106 -40 216 -126 350 -100 155 -130 249 -128 402 2 151 44 271 130 372
130 152 363 217 580 163z m154 -1477 l0 -53 -305 0 -305 0 0 53 0 52 305 0
305 0 0 -52z m0 -173 l0 -50 -305 0 -305 0 0 50 0 50 305 0 305 0 0 -50z"/>
<path d="M1395 1953 c-127 -39 -195 -149 -195 -319 0 -109 20 -158 149 -371
25 -41 42 -86 51 -133 l13 -70 92 0 92 0 6 52 c7 57 40 131 112 251 72 118 96
188 97 271 0 88 -13 137 -51 197 -38 61 -87 97 -162 120 -72 23 -136 23 -204
2z m180 -23 c3 -5 14 -10 24 -10 30 0 109 -57 135 -98 74 -118 66 -252 -25
-407 -82 -141 -103 -181 -125 -245 l-21 -65 -61 -3 c-58 -3 -60 -2 -67 25 -10
32 -8 28 -22 74 -6 19 -41 87 -79 150 -82 135 -109 208 -102 273 3 26 2 48 -2
51 -11 7 26 131 50 165 21 30 71 70 93 74 7 2 19 6 27 9 45 18 165 23 175 7z"/>
</g>
</svg>
